Coordinates
version=1
nRows=4
nColumns=107
inDegrees=yes

Units are S.I. units (second, meters, Newtons, ...)
If the header above contains a line with 'inDegrees', this indicates whether rotational values are in degrees (yes) or radians (no).

endheader
time	sternoclavicular_r2	sternoclavicular_r3	unrotscap_r3	unrotscap_r2	acromioclavicular_r2	acromioclavicular_r3	acromioclavicular_r1	unrothum_r1	unrothum_r3	unrothum_r2	elv_angle	shoulder_elv	shoulder1_r2	shoulder_rot	elbow_flexion	pro_sup	deviation	flexion	proximal_distal_r1	proximal_distal_r3	cmc_flexion	cmc_abduction	mp_flexion	ip_flexion	mcp2_flexion	mcp2_abduction	pm2_flexion	md2_flexion	mcp3_flexion	mcp3_abduction	pm3_flexion	md3_flexion	mcp4_flexion	mcp4_abduction	pm4_flexion	md4_flexion	mcp5_flexion	mcp5_abduction	pm5_flexion	md5_flexion	bicpt_tx	bicpt_ty	bicpt_tz	bicpt2_tx	bicpt2_ty	bicpt2_tz	ptpt_tx	ptpt_ty	ptpt_tz	FCUpt_tx	FCUpt_ty	FCUpt_tz	EDCpt_tx	EDCpt_ty	EDCpt_tz	APLpt_tx	APLpt_ty	APLpt_tz	FPLpt_tx	FPLpt_ty	FPLpt_tz	FPLpt2_tx	FPLpt2_ty	FPLpt2_tz	PEC1pt2_tx	PEC1pt2_ty	PEC1pt2_tz	PEC1pt3_tx	PEC1pt3_ty	PEC1pt3_tz	PEC2pt2_tx	PEC2pt2_ty	PEC2pt2_tz	PEC2pt3_tx	PEC2pt3_ty	PEC2pt3_tz	PEC3pt2_tx	PEC3pt2_ty	PEC3pt2_tz	PEC3pt3_tx	PEC3pt3_ty	PEC3pt3_tz	DELT2pt2a_tx	DELT2pt2a_ty	DELT2pt2a_tz	DELT2pt2_tx	DELT2pt2_ty	DELT2pt2_tz	LAT1pt2_tx	LAT1pt2_ty	LAT1pt2_tz	LAT1pt3_tx	LAT1pt3_ty	LAT1pt3_tz	LAT2pt2_tx	LAT2pt2_ty	LAT2pt2_tz	LAT2pt3_tx	LAT2pt3_ty	LAT2pt3_tz	LAT3pt2_tx	LAT3pt2_ty	LAT3pt2_tz	LAT3pt3_tx	LAT3pt3_ty	LAT3pt3_tz
      0.00000000	     -0.31959904	      0.13536707	     -0.13536707	      0.31959904	     -0.06471231	      0.52298209	      0.23507685	     -0.23507685	     -0.52298209	      0.06471231	     99.82551779	     75.66791426	     -1.74228396	    -27.61802975	     29.37979405	     52.17227557	      0.26111938	     -0.85113869	      0.29856748	     -0.42556934	     10.89102240	      0.36208411	    -25.37211873	    -50.59108493	     78.76490142	     13.35050800	     87.12480572	     92.31359289	     94.85217795	      0.78408952	     75.20539604	     56.71411874	     89.45107416	    -13.10420455	     79.21660134	     84.80483835	     92.24947141	    -13.98643101	     67.01108228	      4.89628412	      0.00087179	     -0.03096737	     -0.00484240	      0.01642767	     -0.01818117	     -0.00606675	      0.00369506	     -0.06739267	     -0.00425276	      0.00902859	     -0.18322082	     -0.00041704	     -0.00626066	      0.00189826	      0.00001889	      0.00026416	      0.00010566	      0.00052831	      0.00033812	      0.00101436	      0.00057058	      0.00003148	     -0.00020638	     -0.00024766	      0.00248023	      0.00870182	      0.00605344	     -0.00811329	      0.01958960	     -0.01858069	      0.00248023	      0.00870182	      0.00605344	      0.00054649	      0.01816031	     -0.00954257	      0.00392900	      0.00483897	      0.01592116	      0.00000000	      0.00765655	      0.00000000	     -0.00710438	     -0.03283149	     -0.00631248	      0.01778415	     -0.00067663	     -0.00637430	     -0.00088279	      0.01479729	     -0.00605344	      0.00243819	      0.02135518	     -0.01765586	     -0.00592732	      0.01282152	     -0.00542287	     -0.01235910	      0.02707232	     -0.03030923	     -0.02320485	      0.01433488	     -0.00727253	     -0.01538582	      0.03127610	     -0.03787603
      0.03333333	     -0.32507217	      0.13768523	     -0.13768523	      0.32507217	     -0.06582050	      0.53193815	      0.23910254	     -0.23910254	     -0.53193815	      0.06582050	     98.56575576	     76.96372632	     -1.72029697	    -21.01967490	     29.04931719	     46.28485297	      0.29505143	     -0.81947887	      0.32917124	     -0.40973943	     10.88471869	     -1.14149882	    -27.40560636	    -52.42750999	     78.30589488	     13.28126484	     86.82286975	     90.82730356	     93.70161196	      1.31702529	     77.30293951	     57.28581027	     88.74085293	    -13.01523463	     80.21305155	     84.92463912	     92.05048249	    -13.97941000	     67.92547890	      4.95081803	      0.00086086	     -0.03092950	     -0.00483629	      0.01654100	     -0.01809139	     -0.00677144	      0.00413007	     -0.06711138	     -0.00377849	      0.00841908	     -0.18335872	     -0.00041617	     -0.00555417	      0.00164200	      0.00009061	      0.00027606	      0.00011042	      0.00055211	      0.00035335	      0.00106006	      0.00059628	      0.00003149	     -0.00020630	     -0.00024756	      0.00252270	      0.00885084	      0.00615710	     -0.00825223	      0.01992507	     -0.01889889	      0.00252270	      0.00885084	      0.00615710	      0.00055585	      0.01847131	     -0.00970599	      0.00397798	      0.00492184	      0.01604062	      0.00000000	      0.00792293	      0.00000000	     -0.00722604	     -0.03339373	     -0.00653361	      0.01435771	     -0.00046346	     -0.00366031	     -0.00089791	      0.01505070	     -0.00615710	      0.00247994	      0.02172089	     -0.01795822	     -0.00602883	      0.01304109	     -0.00551574	     -0.01257075	      0.02753593	     -0.03082827	     -0.02360223	      0.01458036	     -0.00739708	     -0.01564930	      0.03181170	     -0.03852465
      0.06666667	     -0.33031056	      0.13990396	     -0.13990396	      0.33031056	     -0.06688117	      0.54051008	      0.24295556	     -0.24295556	     -0.54051008	      0.06688117	     97.61969999	     78.20396090	     -1.70378518	    -15.16234095	     28.59300810	     40.35501713	      0.30878257	     -0.83721407	      0.34101950	     -0.41860703	     10.99014463	     -2.45042739	    -28.93625687	    -53.92860665	     77.43786188	     13.23306669	     86.42822167	     89.03224934	     93.29683642	      1.73354310	     79.23745714	     57.56031153	     88.49382292	    -12.96057853	     80.92278211	     84.94564472	     90.96790644	    -13.99112753	     71.82275513	      5.02808691	      0.00084577	     -0.03087720	     -0.00482787	      0.01657493	     -0.01796743	     -0.00743204	      0.00456822	     -0.06682807	     -0.00330081	      0.00781600	     -0.18348766	     -0.00038889	     -0.00484259	      0.00139470	      0.00014384	      0.00026959	      0.00010784	      0.00053919	      0.00034508	      0.00103524	      0.00058232	      0.00003133	     -0.00020765	     -0.00024918	      0.00256335	      0.00899346	      0.00625632	     -0.00838521	      0.02024615	     -0.01920343	      0.00256335	      0.00899346	      0.00625632	      0.00056481	      0.01876897	     -0.00986240	      0.00402429	      0.00500115	      0.01615123	      0.00000000	      0.00818227	      0.00000000	     -0.00734249	     -0.03393186	     -0.00674882	      0.01082815	     -0.00028822	     -0.00181055	     -0.00091238	      0.01529323	     -0.00625632	      0.00251991	      0.02207091	     -0.01824761	     -0.00612598	      0.01325124	     -0.00560462	     -0.01277332	      0.02797966	     -0.03132506	     -0.02398257	      0.01481532	     -0.00751628	     -0.01590149	      0.03232433	     -0.03914546
      0.10000000	     -0.32790709	      0.13888597	     -0.13888597	      0.32790709	     -0.06639452	      0.53657712	      0.24118772	     -0.24118772	     -0.53657712	      0.06639452	     98.07830303	     77.63491827	     -1.71178931	    -17.87192611	     28.69167108	     42.64040734	      0.29132389	     -0.83937371	      0.32590116	     -0.41968686	     11.04097921	     -2.83019738	    -30.36463776	    -55.69313760	     78.48802073	     13.20939896	     85.68872486	     92.34785472	     92.42372543	      1.98412660	     79.65227507	     58.51431111	     88.43785113	    -12.82805494	     82.94264033	     84.98724202	     92.12358941	    -13.97645014	     74.92287695	      5.45440879	      0.00084903	     -0.03088850	     -0.00482969	      0.01657136	     -0.01799423	     -0.00718327	      0.00439936	     -0.06693726	     -0.00348491	      0.00804715	     -0.18343915	     -0.00040254	     -0.00511684	      0.00148873	      0.00012558	      0.00026877	      0.00010751	      0.00053754	      0.00034403	      0.00103208	      0.00058055	      0.00003125	     -0.00020831	     -0.00024997	      0.00254470	      0.00892802	      0.00621080	     -0.00832420	      0.02009883	     -0.01906370	      0.00254470	      0.00892802	      0.00621080	      0.00056070	      0.01863240	     -0.00979063	      0.00400311	      0.00496476	      0.01610093	      0.00000000	      0.00806275	      0.00000000	     -0.00728906	     -0.03368496	     -0.00664964	      0.01251796	     -0.00036749	     -0.00259580	     -0.00090574	      0.01518195	     -0.00621080	      0.00250157	      0.02191032	     -0.01811483	     -0.00608141	      0.01315482	     -0.00556384	     -0.01268038	      0.02777607	     -0.03109712	     -0.02380806	      0.01470752	     -0.00746158	     -0.01578578	      0.03208913	     -0.03886062
